HIERARCHY
ROOT joint_Root
{
	OFFSET 0.0 0.0 0.0
	CHANNELS 6 Xposition Yposition Zposition Zrotation Xrotation Yrotation 
	JOINT Hips
	{
		OFFSET -17.1583 93.1646 452.98
		CHANNELS 6 Xposition Yposition Zposition Zrotation Xrotation Yrotation 
		JOINT Spine
		{
			OFFSET 15.7357 0.0 0.0
			CHANNELS 6 Xposition Yposition Zposition Zrotation Xrotation Yrotation 
			JOINT Chest
			{
				OFFSET 8.98455 -0.406207 0.0
				CHANNELS 6 Xposition Yposition Zposition Zrotation Xrotation Yrotation 
				JOINT Neck
				{
					OFFSET 16.3773 0.0 0.0
					CHANNELS 6 Xposition Yposition Zposition Zrotation Xrotation Yrotation 
					JOINT Head
					{
						OFFSET 6.45672 0.0 0.0
						CHANNELS 6 Xposition Yposition Zposition Zrotation Xrotation Yrotation 
						End Site
						{
							OFFSET 0.0 0.0 0.0
						}
					}
				}
				JOINT Shoulder_L
				{
					OFFSET 12.9942 -0.242716 4.98039
					CHANNELS 6 Xposition Yposition Zposition Zrotation Xrotation Yrotation 
					JOINT UpperArm_L
					{
						OFFSET 5.34809 0.0 0.0
						CHANNELS 6 Xposition Yposition Zposition Zrotation Xrotation Yrotation 
						JOINT LowerArm_L
						{
							OFFSET 24.3286 1.87007e-05 0.0
							CHANNELS 6 Xposition Yposition Zposition Zrotation Xrotation Yrotation 
							JOINT Hand_L
							{
								OFFSET 22.2916 0.0 0.0
								CHANNELS 6 Xposition Yposition Zposition Zrotation Xrotation Yrotation 
								End Site
								{
									OFFSET 0.0 0.0 0.0
								}
							}
						}
					}
				}
				JOINT Shoulder_R
				{
					OFFSET 12.9945 -0.242716 -4.98039
					CHANNELS 6 Xposition Yposition Zposition Zrotation Xrotation Yrotation 
					JOINT UpperArm_R
					{
						OFFSET -5.34813 0.0 0.0
						CHANNELS 6 Xposition Yposition Zposition Zrotation Xrotation Yrotation 
						JOINT LowerArm_R
						{
							OFFSET -24.3289 0.000322201 0.0
							CHANNELS 6 Xposition Yposition Zposition Zrotation Xrotation Yrotation 
							JOINT Hand_R
							{
								OFFSET -22.2915 -0.000108084 0.0
								CHANNELS 6 Xposition Yposition Zposition Zrotation Xrotation Yrotation 
								End Site
								{
									OFFSET 0.0 0.0 0.0
								}
							}
						}
					}
				}
			}
		}
		JOINT UpperLeg_L
		{
			OFFSET -2.19248 -6.46944 0.0
			CHANNELS 6 Xposition Yposition Zposition Zrotation Xrotation Yrotation 
			JOINT LowerLeg_L
			{
				OFFSET 39.0811 0.0 -1.23785e-05
				CHANNELS 6 Xposition Yposition Zposition Zrotation Xrotation Yrotation 
				JOINT Foot_L
				{
					OFFSET 40.9854 0.0 -1.26872e-05
					CHANNELS 6 Xposition Yposition Zposition Zrotation Xrotation Yrotation 
					JOINT Toes_L
					{
						OFFSET 11.7543 0.0 0.0
						CHANNELS 6 Xposition Yposition Zposition Zrotation Xrotation Yrotation 
						End Site
						{
							OFFSET 0.0 0.0 0.0
						}
					}
				}
			}
		}
		JOINT UpperLeg_R
		{
			OFFSET -2.19251 6.46944 0.0
			CHANNELS 6 Xposition Yposition Zposition Zrotation Xrotation Yrotation 
			JOINT LowerLeg_R
			{
				OFFSET -39.0811 -0.00228153 -0.0401928
				CHANNELS 6 Xposition Yposition Zposition Zrotation Xrotation Yrotation 
				JOINT Foot_R
				{
					OFFSET -40.9854 0.0 0.0
					CHANNELS 6 Xposition Yposition Zposition Zrotation Xrotation Yrotation 
					JOINT Toes_R
					{
						OFFSET -11.7543 0.0 0.0
						CHANNELS 6 Xposition Yposition Zposition Zrotation Xrotation Yrotation 
						End Site
						{
							OFFSET 0.0 0.0 0.0
						}
					}
				}
			}
		}
	}
}
MOTION
Frames:	7
Frame Time:	0.0333333
0.000000 0.000000 0.000000 0.000000 0.000000 -0.000000 -2.367790 84.691700 -29.878200 -92.796300 -0.305145 171.351000 15.735700 0.000005 -0.000001 83.290800 83.875600 -83.590100 8.984550 -0.406207 -0.000000 4.396310 -1.419840 -0.543359 16.377300 -0.000001 -0.000001 -7.373010 2.325650 -1.456260 6.456720 -0.000001 -0.000000 -0.083257 2.559550 -1.656650 12.994200 -0.242716 4.980390 -92.536300 8.528660 -73.371300 5.348090 -0.000007 -0.000001 -69.361200 -22.944600 1.612080 24.328600 0.000019 0.000005 52.892200 19.063800 -76.115100 22.291600 -0.000001 0.000005 47.560400 3.966510 24.700900 12.994500 -0.242716 -4.980390 88.586800 5.152010 -74.637400 -5.348130 -0.000001 -0.000004 -64.155700 -7.840080 10.689900 -24.328900 0.000322 -0.000009 6.695740 10.327000 -33.241700 -22.291500 -0.000108 -0.000004 54.711900 5.363420 -1.784060 -2.192480 -6.469440 -0.000000 173.287000 2.232870 -29.765800 39.081100 -0.000007 -0.000012 0.953115 -0.698647 53.761100 40.985400 -0.000006 -0.000013 6.938570 6.099170 -87.165400 11.754300 -0.000000 0.000003 -0.000318 0.172814 -9.567270 -2.192510 6.469440 -0.000001 178.563000 4.604620 143.771000 -39.081100 -0.002282 -0.040193 0.013247 0.002016 101.970000 -40.985400 0.000008 0.000006 3.019940 -11.409100 -42.865200 -11.754300 -0.000006 -0.000006 -0.001222 0.186180 -9.020720
0.000000 0.000000 0.000000 0.000000 0.000000 -0.000000 -2.091940 85.844400 -40.187100 -90.477100 0.408502 171.234000 15.735700 0.000005 -0.000001 73.600100 84.092700 -72.854000 8.984550 -0.406207 -0.000000 3.595360 -3.358660 1.596370 16.377300 -0.000001 -0.000001 -6.175540 3.837210 -2.114220 6.456720 -0.000001 -0.000000 1.016470 5.080270 -2.194090 12.994200 -0.242716 4.980390 -92.190200 7.667320 -74.005400 5.348090 -0.000007 -0.000001 -71.663700 -19.363300 -2.248870 24.328600 0.000019 0.000005 58.265000 14.532300 -81.177100 22.291600 -0.000001 0.000005 47.232300 3.927490 25.246600 12.994500 -0.242716 -4.980390 88.738000 4.413050 -74.022500 -5.348130 -0.000001 -0.000004 -61.066200 -10.091600 15.800700 -24.328900 0.000322 -0.000009 7.558670 13.496200 -29.627200 -22.291500 -0.000108 -0.000004 53.532400 5.339720 -1.067690 -2.192480 -6.469440 -0.000000 177.037000 -0.268795 -18.834300 39.081100 -0.000007 -0.000012 -0.020540 0.019568 46.392500 40.985400 -0.000006 -0.000013 0.739358 11.580300 -86.827100 11.754300 -0.000000 0.000003 0.002031 0.119724 -11.721800 -2.192510 6.469440 -0.000001 -177.943000 1.986910 135.849000 -39.081100 -0.002282 -0.040193 -0.098064 -0.018078 100.061000 -40.985400 0.000008 0.000006 1.248010 -12.570300 -50.616400 -11.754300 -0.000006 -0.000006 -0.001397 0.188557 -8.924070
0.000000 0.000000 0.000000 0.000000 0.000000 -0.000000 -1.524690 88.383700 -50.722000 -87.008200 1.690630 169.530000 15.735700 0.000005 -0.000001 60.772300 84.744500 -58.590100 8.984550 -0.406207 -0.000000 1.517440 -5.248690 4.432540 16.377300 -0.000001 -0.000001 -4.122610 5.408150 -2.740650 6.456720 -0.000001 -0.000000 1.646910 8.156950 -3.113530 12.994200 -0.242716 4.980390 -92.036400 6.949040 -73.622000 5.348090 -0.000007 -0.000001 -72.007500 -18.198700 -3.278040 24.328600 0.000019 0.000005 58.098200 9.630300 -84.056800 22.291600 -0.000001 0.000005 47.305600 3.897610 25.662300 12.994500 -0.242716 -4.980390 89.078200 3.101940 -73.437800 -5.348130 -0.000001 -0.000004 -57.538800 -13.225500 20.562400 -24.328900 0.000322 -0.000009 7.539710 13.875800 -28.898000 -22.291500 -0.000108 -0.000004 51.642400 5.280460 0.617121 -2.192480 -6.469440 -0.000000 -178.636000 -4.310790 -8.207080 39.081100 -0.000007 -0.000012 -0.007716 0.011133 34.730800 40.985400 -0.000006 -0.000013 -1.232290 14.712900 -77.737200 11.754300 -0.000000 0.000003 -0.004322 -0.054754 -18.804200 -2.192510 6.469440 -0.000001 -173.535000 -2.118380 130.683000 -39.081100 -0.002282 -0.040193 -0.175582 -0.000506 90.134900 -40.985400 0.000008 0.000006 -0.613660 -16.541000 -57.596000 -11.754300 -0.000006 -0.000006 -0.001316 0.187469 -8.968300
0.000000 0.000000 0.000000 0.000000 0.000000 -0.000000 -0.932966 91.270800 -60.945000 -83.428200 2.262790 165.622000 15.735700 0.000005 -0.000001 41.027600 85.668000 -37.371900 8.984550 -0.406207 -0.000000 -1.853990 -6.841000 7.206040 16.377300 -0.000001 -0.000001 -2.576710 6.367170 -3.139680 6.456720 -0.000001 -0.000000 2.937100 10.467200 -3.468040 12.994200 -0.242716 4.980390 -91.720200 5.852180 -73.588500 5.348090 -0.000007 -0.000001 -72.407200 -17.834900 -3.032090 24.328600 0.000019 0.000005 56.893600 6.340890 -85.880600 22.291600 -0.000001 0.000005 47.494500 3.981160 24.493800 12.994500 -0.242716 -4.980390 89.669000 1.074670 -72.871500 -5.348130 -0.000001 -0.000004 -55.164500 -15.421600 25.017600 -24.328900 0.000322 -0.000009 7.297540 13.287200 -29.129500 -22.291500 -0.000108 -0.000004 51.531100 5.269590 0.908950 -2.192480 -6.469440 -0.000000 -174.922000 -6.960250 -1.714780 39.081100 -0.000007 -0.000012 0.010334 -0.024536 22.839400 40.985400 -0.000006 -0.000013 -1.895090 14.628100 -59.469100 11.754300 -0.000000 0.000003 -0.071407 -0.367199 -31.787300 -2.192510 6.469440 -0.000001 -169.990000 -6.269710 127.065000 -39.081100 -0.002282 -0.040193 -0.168222 0.049302 73.941200 -40.985400 0.000008 0.000006 -2.736050 -21.863800 -62.729600 -11.754300 -0.000006 -0.000006 -0.000852 0.180946 -9.233400
0.000000 0.000000 0.000000 0.000000 0.000000 -0.000000 -0.921657 93.368000 -71.332000 -83.237800 3.352490 164.008000 15.735700 0.000005 -0.000001 25.804100 85.731600 -21.918900 8.984550 -0.406207 -0.000000 -3.782210 -8.071750 7.516990 16.377300 -0.000001 -0.000001 -1.873350 7.046890 -3.360280 6.456720 -0.000001 -0.000000 4.391770 12.137400 -3.436190 12.994200 -0.242716 4.980390 -91.646500 5.654860 -73.736900 5.348090 -0.000007 -0.000001 -72.208400 -17.278800 -2.564960 24.328600 0.000019 0.000005 57.227600 5.357340 -86.560200 22.291600 -0.000001 0.000005 48.311900 3.963930 24.735700 12.994500 -0.242716 -4.980390 90.074400 -0.239309 -72.734000 -5.348130 -0.000001 -0.000004 -53.307900 -15.618600 28.768100 -24.328900 0.000322 -0.000009 7.630630 13.321900 -30.178200 -22.291500 -0.000108 -0.000004 51.686600 5.280470 0.611954 -2.192480 -6.469440 -0.000000 -175.804000 -6.087370 3.287610 39.081100 -0.000007 -0.000012 0.003350 -0.011696 15.983400 40.985400 -0.000006 -0.000013 -2.039860 12.681700 -39.888100 11.754300 -0.000000 0.000003 -0.039235 -0.257057 -27.134100 -2.192510 6.469440 -0.000001 -170.911000 -9.305980 128.381000 -39.081100 -0.002282 -0.040193 -0.091406 0.067087 54.666700 -40.985400 0.000008 0.000006 -3.420290 -22.067800 -66.192500 -11.754300 -0.000006 -0.000006 -0.000932 0.182105 -9.186310
0.000000 0.000000 0.000000 0.000000 0.000000 -0.000000 -1.183080 94.152700 -82.220700 -85.101500 4.399640 165.522000 15.735700 0.000005 -0.000001 23.865400 85.312100 -20.720500 8.984550 -0.406207 -0.000000 -3.742460 -8.884400 6.011380 16.377300 -0.000001 -0.000001 -1.833240 7.429340 -3.254110 6.456720 -0.000001 -0.000000 5.218310 13.144000 -2.779420 12.994200 -0.242716 4.980390 -91.748800 6.128590 -74.039900 5.348090 -0.000007 -0.000001 -71.694700 -16.302800 -2.392040 24.328600 0.000019 0.000005 55.978100 6.058810 -85.924100 22.291600 -0.000001 0.000005 47.150500 3.958770 24.808200 12.994500 -0.242716 -4.980390 89.986100 0.043272 -72.305800 -5.348130 -0.000001 -0.000004 -51.476500 -15.136500 30.985400 -24.328900 0.000322 -0.000009 7.565350 12.970900 -30.616700 -22.291500 -0.000108 -0.000004 51.029100 5.277690 0.688346 -2.192480 -6.469440 -0.000000 -178.056000 -5.973170 7.052680 39.081100 -0.000007 -0.000012 0.016240 -0.047544 18.860000 40.985400 -0.000006 -0.000013 -8.517770 8.923290 -28.164700 11.754300 -0.000000 0.000003 0.002414 0.069457 -13.759700 -2.192510 6.469440 -0.000001 -173.637000 -10.312200 134.522000 -39.081100 -0.002282 -0.040193 -0.016754 0.028550 35.071600 -40.985400 0.000008 0.000006 -6.176610 -13.443600 -69.851700 -11.754300 -0.000006 -0.000006 -0.001409 0.188721 -8.917420
0.000000 0.000000 0.000000 0.000000 0.000000 -0.000000 -1.383930 93.605300 -93.141000 -86.879200 3.813820 167.228000 15.735700 0.000005 -0.000001 23.688900 84.706500 -21.226300 8.984550 -0.406207 -0.000000 -3.317090 -9.928050 4.647810 16.377300 -0.000001 -0.000001 -2.054100 7.444790 -3.345510 6.456720 -0.000001 -0.000000 5.292780 13.470400 -2.035240 12.994200 -0.242716 4.980390 -91.719300 6.162140 -74.377600 5.348090 -0.000007 -0.000001 -72.573100 -14.940400 -2.343250 24.328600 0.000019 0.000005 54.802900 8.967830 -83.724400 22.291600 -0.000001 0.000005 44.738800 3.960810 24.778600 12.994500 -0.242716 -4.980390 89.870000 0.407295 -72.292900 -5.348130 -0.000001 -0.000004 -51.088900 -16.671100 31.682700 -24.328900 0.000322 -0.000009 6.743690 12.160900 -29.309100 -22.291500 -0.000108 -0.000004 52.586300 5.267080 0.975232 -2.192480 -6.469440 -0.000000 -179.890000 -5.051380 7.506700 39.081100 -0.000007 -0.000012 0.017391 -0.029157 30.814100 40.985400 -0.000006 -0.000013 -10.644300 10.353200 -28.752600 11.754300 -0.000000 0.000003 0.002303 0.060966 -14.104000 -2.192510 6.469440 -0.000001 -175.940000 -9.777150 140.606000 -39.081100 -0.002282 -0.040193 -0.013115 0.046245 19.567500 -40.985400 0.000008 0.000006 -12.020500 -3.880120 -73.593700 -11.754300 -0.000006 -0.000006 -0.001233 0.186339 -9.014250
